<?xml version="1.0" standalone="no"?>
<!DOCTYPE svg PUBLIC "-//W3C//DTD SVG 20010904//EN"
 "http://www.w3.org/TR/2001/REC-SVG-20010904/DTD/svg10.dtd">
<svg version="1.0" xmlns="http://www.w3.org/2000/svg"
 width="500.000000pt" height="500.000000pt" viewBox="0 0 500.000000 500.000000"
 preserveAspectRatio="xMidYMid meet">
<metadata>
Created by potrace 1.14, written by Peter Selinger 2001-2017
</metadata>
<g transform="translate(0.000000,500.000000) scale(0.100000,-0.100000)"
fill="#000000" stroke="none">
<path d="M0 2500 l0 -2500 2500 0 2500 0 0 2500 0 2500 -2500 0 -2500 0 0
-2500z m2779 1974 c337 -49 645 -177 919 -381 97 -73 276 -245 355 -343 197
-244 349 -567 406 -864 12 -59 21 -120 21 -136 0 -27 2 -29 48 -32 l47 -3 0
-85 0 -85 -37 -3 -38 -3 0 -57 c0 -366 -122 -763 -331 -1083 -298 -454 -750
-760 -1289 -870 -104 -22 -140 -24 -385 -24 -301 1 -362 9 -593 81 -466 145
-858 454 -1111 877 l-53 87 -79 0 -79 0 0 208 c0 150 -4 222 -15 262 -39 146
-71 431 -59 523 l6 42 -56 29 c-135 69 -206 208 -206 403 0 185 64 318 191
398 57 37 174 73 259 81 l75 7 52 81 c191 298 506 572 832 723 171 80 335 130
531 163 139 24 441 26 589 4z"/>
<path d="M2415 4345 c-145 -88 -313 -241 -403 -368 l-33 -47 213 6 c117 4 218
11 224 15 6 5 14 44 18 87 4 42 16 135 27 205 11 71 19 131 17 133 -3 2 -31
-12 -63 -31z"/>
<path d="M2990 4351 c58 -16 106 -28 108 -26 11 10 -95 46 -149 50 l-64 5 105
-29z"/>
<path d="M2082 4358 c-41 -8 -62 -19 -95 -51 -33 -32 -38 -41 -25 -44 9 -2 36
6 60 18 24 12 84 37 133 55 l90 33 -55 -1 c-30 0 -79 -5 -108 -10z"/>
<path d="M2345 4363 c-59 -14 -322 -106 -363 -127 -64 -33 -115 -89 -151 -166
-44 -93 -42 -106 21 -125 88 -26 81 -30 197 116 62 78 159 169 269 253 75 57
77 61 27 49z"/>
<path d="M2481 4198 c-12 -95 -24 -184 -27 -198 -7 -44 9 -55 80 -55 35 0 67
3 71 7 8 8 -11 273 -25 347 -8 45 -30 71 -60 71 -14 0 -20 -29 -39 -172z"/>
<path d="M2725 4359 c250 -100 405 -186 553 -307 31 -26 60 -41 68 -38 9 4 12
11 8 18 -57 94 -118 179 -142 200 -40 34 -178 83 -299 107 -107 21 -220 33
-188 20z"/>
<path d="M2610 4356 c0 -3 35 -40 78 -83 45 -45 109 -125 150 -188 113 -174
97 -160 194 -159 63 1 106 9 182 34 l99 32 -29 24 c-71 59 -275 189 -368 234
-127 61 -306 123 -306 106z"/>
<path d="M1809 4331 c-69 -19 -199 -75 -199 -87 0 -3 8 -3 18 1 9 4 78 29 152
56 137 49 150 63 29 30z"/>
<path d="M3165 4320 c13 -20 81 -57 198 -108 106 -46 115 -48 98 -26 -42 53
-107 90 -217 123 -81 24 -88 25 -79 11z"/>
<path d="M1854 4295 c-158 -46 -333 -123 -335 -148 -4 -40 39 -97 74 -97 10 0
59 26 108 58 48 31 110 71 136 87 43 27 113 109 102 119 -2 2 -40 -7 -85 -19z"/>
<path d="M2613 4280 c3 -14 9 -89 13 -167 3 -80 12 -149 18 -157 16 -20 246
-30 246 -11 0 8 -31 60 -70 117 -62 93 -125 166 -190 223 l-23 20 6 -25z"/>
<path d="M3269 4203 c23 -42 117 -167 127 -170 14 -5 84 59 84 76 0 11 -189
111 -210 111 -7 0 -8 -6 -1 -17z"/>
<path d="M3517 4164 c-13 -13 15 -45 76 -86 61 -41 175 -127 252 -190 l40 -33
-32 41 c-48 61 -163 167 -244 223 -74 52 -81 56 -92 45z"/>
<path d="M1764 4114 c-32 -19 -74 -47 -92 -61 -39 -30 -34 -40 35 -66 32 -13
44 -13 51 -4 17 20 81 167 73 167 -4 0 -34 -16 -67 -36z"/>
<path d="M1435 4113 c-54 -29 -139 -99 -183 -151 -55 -66 -143 -194 -137 -200
2 -2 57 11 121 29 l116 34 102 88 c55 49 104 95 109 102 5 9 -1 19 -16 30 -13
8 -32 31 -43 50 -21 39 -27 41 -69 18z"/>
<path d="M3458 4045 c-27 -24 -48 -52 -48 -63 0 -11 15 -40 33 -64 38 -49 75
-66 216 -99 52 -11 142 -36 200 -54 l106 -34 -92 89 c-123 118 -325 271 -357
270 -6 -1 -32 -20 -58 -45z"/>
<path d="M1512 3929 c-46 -39 -81 -74 -78 -77 3 -2 67 6 143 19 99 17 142 28
156 42 13 13 16 22 9 29 -12 12 -121 58 -137 58 -5 0 -47 -32 -93 -71z"/>
<path d="M3232 3939 c-35 -11 -62 -23 -59 -25 9 -9 247 -41 247 -33 0 4 -15
24 -34 43 -39 42 -61 44 -154 15z"/>
<path d="M2165 3911 l-70 -6 55 -8 c30 -4 102 -9 160 -10 88 -2 105 0 105 13
0 12 -17 15 -90 16 -49 0 -121 -2 -160 -5z"/>
<path d="M2447 3906 c-9 -23 2 -26 85 -26 71 0 78 2 78 20 0 18 -7 20 -79 20
-58 0 -80 -4 -84 -14z"/>
<path d="M2646 3911 c-17 -26 6 -32 97 -25 108 8 167 22 101 23 -23 1 -75 4
-116 7 -52 5 -77 3 -82 -5z"/>
<path d="M1079 3833 c-44 -43 -94 -94 -110 -115 l-30 -37 32 9 c43 13 93 53
127 103 45 67 74 117 68 117 -4 0 -43 -35 -87 -77z"/>
<path d="M1807 3883 c-49 -5 -59 -23 -90 -158 -59 -253 -61 -322 -4 -202 20
43 71 139 114 215 43 75 80 140 81 144 4 8 -30 8 -101 1z"/>
<path d="M1955 3871 c-16 -10 -37 -27 -46 -37 -41 -47 -249 -474 -249 -511 0
-3 23 17 51 46 86 87 195 131 329 131 120 0 218 -34 308 -108 l42 -34 0 53 c0
30 5 139 12 242 10 162 10 190 -3 198 -8 5 -59 9 -114 9 -55 0 -131 7 -170 15
-92 20 -124 19 -160 -4z"/>
<path d="M2982 3881 c-11 -6 -7 -21 17 -69 70 -140 161 -385 216 -587 53 -197
45 -180 90 -178 22 2 63 8 91 13 l52 11 56 147 57 147 -21 108 c-21 110 -58
249 -86 324 -14 39 -19 43 -67 53 -156 32 -377 49 -405 31z"/>
<path d="M2795 3868 c-126 -12 -142 -15 -147 -30 -2 -7 -2 -86 0 -175 l4 -161
166 -4 c148 -3 173 -6 219 -27 29 -13 58 -29 64 -37 46 -56 11 55 -92 287 -55
125 -80 162 -106 157 -4 0 -53 -5 -108 -10z"/>
<path d="M1595 3851 c-215 -39 -208 -36 -270 -103 -31 -33 -88 -102 -127 -152
l-71 -91 37 -3 36 -3 2 -172 3 -172 145 -37 c124 -32 200 -45 200 -35 0 1 15
45 34 97 25 71 41 144 60 280 15 102 38 231 51 288 14 57 25 108 25 113 0 11
-4 11 -125 -10z"/>
<path d="M2445 3841 c-3 -6 -14 -121 -25 -256 l-20 -246 25 -39 c34 -54 53
-104 69 -180 10 -53 16 -65 32 -65 18 0 19 11 22 223 l2 222 42 0 41 0 -7 92
c-3 50 -6 122 -6 159 0 89 -10 99 -100 99 -38 0 -71 -4 -75 -9z"/>
<path d="M3540 3816 c0 -3 31 -45 70 -92 90 -110 204 -283 271 -409 29 -55 54
-102 56 -104 2 -3 26 6 53 19 l50 23 0 124 0 123 30 0 c17 0 30 5 30 10 0 23
-61 129 -85 148 -38 30 -158 78 -292 116 -139 40 -183 50 -183 42z"/>
<path d="M3507 3727 c13 -45 34 -134 48 -197 l23 -115 18 43 c9 23 23 42 29
42 7 0 41 -74 76 -165 34 -90 66 -170 70 -176 5 -8 23 -6 65 8 46 15 60 25 62
42 9 60 -284 499 -382 575 l-33 25 24 -82z"/>
<path d="M1213 3765 c-156 -48 -233 -164 -233 -350 l0 -95 -30 0 c-23 0 -30
-5 -30 -19 0 -20 28 -37 41 -24 31 32 59 111 59 164 l0 59 39 0 c34 0 41 5 66
43 25 37 51 70 164 208 l24 29 -29 -1 c-16 0 -48 -6 -71 -14z"/>
<path d="M3990 3776 c0 -15 60 -94 76 -100 10 -4 1 14 -21 41 -52 65 -55 68
-55 59z"/>
<path d="M975 3663 c-27 -14 -63 -37 -79 -50 -34 -28 -86 -92 -86 -104 0 -5
33 -9 73 -9 l72 0 41 95 c23 52 39 95 35 95 -3 -1 -28 -13 -56 -27z"/>
<path d="M4127 3570 c24 -38 53 -72 53 -62 0 7 -14 26 -31 44 -18 18 -27 26
-22 18z"/>
<path d="M4230 3298 c0 -31 12 -110 26 -175 16 -74 28 -164 31 -243 7 -152 11
-160 95 -160 54 0 58 2 58 23 0 34 -45 222 -73 307 -28 85 -100 252 -122 284
-14 19 -15 16 -15 -36z"/>
<path d="M730 3323 c-17 -3 -30 -14 -37 -31 -6 -15 -22 -55 -36 -89 l-26 -63
118 0 118 0 12 72 c11 65 10 73 -6 89 -18 17 -95 28 -143 22z"/>
<path d="M1960 3321 c-91 -29 -151 -94 -181 -193 -12 -38 -18 -75 -15 -83 4
-12 25 -15 95 -15 80 0 90 2 96 20 9 29 54 60 87 60 19 0 40 -10 60 -30 29
-29 32 -30 125 -30 l95 0 -7 38 c-16 91 -76 177 -149 214 -44 23 -162 34 -206
19z"/>
<path d="M2730 3220 l0 -110 83 0 c139 0 199 31 199 103 0 82 -58 116 -194
117 l-88 0 0 -110z"/>
<path d="M614 3302 c-99 -35 -155 -102 -174 -209 -18 -107 7 -222 62 -280 l22
-23 22 109 c22 113 70 267 110 360 13 29 24 55 24 57 0 7 -14 4 -66 -14z"/>
<path d="M998 3294 c-15 -27 -15 -34 -3 -50 19 -26 27 -14 23 37 l-3 44 -17
-31z"/>
<path d="M895 3216 c-10 -66 -1 -77 23 -29 27 52 28 73 3 73 -16 0 -21 -9 -26
-44z"/>
<path d="M941 3188 l-18 -43 28 -3 28 -3 3 -138 3 -138 55 17 c55 18 55 18 18
19 l-38 1 0 155 c0 142 -1 155 -19 165 -32 17 -41 12 -60 -32z"/>
<path d="M4004 3215 c-53 -24 -57 -36 -30 -96 14 -30 32 -81 40 -113 9 -32 18
-61 21 -64 3 -3 5 61 5 141 0 81 -1 147 -2 146 -2 0 -17 -7 -34 -14z"/>
<path d="M3192 3157 c-7 -16 -12 -33 -12 -38 0 -5 -18 -27 -40 -49 l-40 -40
60 0 c74 0 79 8 58 94 -15 60 -15 60 -26 33z"/>
<path d="M3838 3149 c-52 -18 -56 -22 -49 -42 5 -12 23 -60 41 -107 18 -47 36
-88 39 -92 4 -5 44 -19 89 -32 58 -17 82 -20 82 -12 0 18 -42 139 -80 229 -36
86 -35 86 -122 56z"/>
<path d="M1200 3033 c0 -57 3 -103 7 -103 20 0 282 52 301 60 16 7 22 18 22
39 0 27 -3 29 -46 36 -25 3 -100 21 -165 39 l-119 33 0 -104z"/>
<path d="M4231 3008 l-1 -107 -91 -3 -91 -3 39 -38 c21 -22 50 -45 64 -53 45
-23 109 -42 114 -34 6 10 -13 252 -24 305 -7 32 -9 17 -10 -67z"/>
<path d="M3609 3032 c-15 -51 -6 -72 35 -83 25 -7 27 -6 22 15 -3 13 -14 43
-25 67 l-18 44 -14 -43z"/>
<path d="M581 2960 c-14 -58 -25 -125 -25 -150 -1 -41 2 -46 34 -62 48 -23 87
-22 135 5 50 28 68 65 69 142 l1 60 -92 3 -92 3 -3 52 c-3 52 -3 52 -27 -53z"/>
<path d="M3350 3032 c-71 -15 -73 -16 -40 -23 110 -22 107 -22 118 11 6 16 8
29 4 29 -4 -1 -41 -8 -82 -17z"/>
<path d="M1557 3033 c-13 -12 -7 -33 8 -33 8 0 15 9 15 20 0 20 -11 26 -23 13z"/>
<path d="M2221 3029 c-77 -7 -101 -13 -90 -23 2 -2 46 -7 97 -10 l92 -8 0 26
c0 14 -3 25 -7 25 -5 -1 -46 -5 -92 -10z"/>
<path d="M2507 3034 c-4 -4 -7 -16 -7 -26 0 -13 7 -18 26 -18 21 0 25 4 22 22
-3 23 -27 35 -41 22z"/>
<path d="M1765 2958 c17 -96 74 -181 149 -221 33 -17 58 -22 126 -22 68 0 93
5 126 22 71 38 130 121 149 211 l7 32 -99 0 c-91 0 -100 -2 -122 -25 -17 -18
-34 -25 -62 -25 -32 0 -43 6 -66 35 l-28 35 -93 0 -94 0 7 -42z"/>
<path d="M3155 2965 c44 -46 58 -92 53 -175 -5 -89 -42 -152 -115 -196 -65
-39 -139 -54 -265 -54 l-98 0 0 89 0 89 114 4 c98 3 119 6 143 24 62 47 52
132 -21 165 -33 15 -66 19 -179 19 l-138 0 1 -277 c1 -153 -3 -348 -8 -433 -5
-85 -9 -156 -7 -157 1 -2 27 63 57 145 l56 147 102 0 103 0 67 -179 c38 -98
74 -183 82 -187 15 -10 63 -11 106 -3 27 6 33 14 59 88 26 72 32 81 56 84 25
3 27 6 27 55 0 28 -5 113 -12 189 l-11 138 -39 0 c-21 0 -38 4 -38 10 0 5 11
39 25 76 14 36 25 79 25 94 0 39 -37 216 -51 243 -17 31 -28 37 -80 37 l-46 0
32 -35z"/>
<path d="M3285 2970 c-5 -9 9 -97 31 -200 5 -20 14 -3 48 85 41 107 42 110 22
117 -33 10 -94 9 -101 -2z"/>
<path d="M1541 2957 c-9 -11 -27 -80 -56 -214 -5 -21 -1 -23 30 -23 l35 0 0
-90 0 -90 -49 0 c-55 0 -52 6 -67 -122 -6 -54 -5 -56 17 -60 l24 -3 5 -510 5
-510 33 -92 c39 -107 33 -103 202 -127 179 -25 217 -28 259 -21 52 9 53 21 4
120 l-37 75 -211 2 -210 3 0 530 0 530 68 3 68 3 -6 32 c-13 75 -25 218 -25
293 0 52 -7 105 -19 145 -11 35 -23 81 -26 102 -7 38 -24 47 -44 24z"/>
<path d="M2496 2930 c-9 -60 -44 -144 -81 -200 -33 -49 -33 -51 -39 -192 -3
-79 -6 -194 -7 -257 -1 -104 0 -115 18 -122 11 -4 27 -31 42 -72 12 -36 29
-68 38 -71 28 -11 130 -6 140 7 6 7 13 171 17 401 4 213 9 415 13 447 l6 59
-47 0 c-39 0 -46 3 -46 20 0 14 -7 20 -24 20 -20 0 -24 -6 -30 -40z"/>
<path d="M1310 2925 c-91 -19 -201 -45 -245 -58 l-80 -23 -3 -152 -3 -152 -56
0 -56 0 7 -52 c11 -82 54 -286 66 -307 11 -21 82 -47 232 -84 l97 -25 3 142 3
141 66 3 67 3 6 57 c4 31 10 72 13 90 l5 32 -206 0 -206 0 0 90 0 90 220 0
220 0 6 28 c3 15 15 62 26 106 20 80 19 106 -4 105 -7 0 -87 -16 -178 -34z"/>
<path d="M3506 2739 l-69 -199 -44 0 c-43 0 -44 -1 -39 -27 10 -45 25 -223 26
-291 l0 -63 58 3 57 3 16 83 c52 257 95 671 71 686 -4 2 -38 -85 -76 -195z"/>
<path d="M3606 2914 c-3 -9 -6 -51 -6 -93 0 -174 -33 -436 -84 -660 -14 -62
-26 -118 -26 -123 0 -5 17 -8 37 -6 36 3 37 4 53 68 20 82 38 115 87 162 86
82 203 113 319 85 38 -10 88 -31 112 -47 l42 -30 0 35 c0 19 -5 79 -11 135
l-12 100 -38 0 -39 0 0 90 c0 84 1 90 21 90 18 0 20 4 14 33 -12 57 -29 72
-109 97 -42 13 -78 22 -80 19 -2 -2 23 -71 55 -154 33 -82 59 -156 59 -163 0
-10 -22 -12 -92 -10 l-92 3 -31 85 c-17 47 -48 133 -69 193 -38 107 -38 107
-71 107 -21 0 -35 -6 -39 -16z"/>
<path d="M4090 2773 c0 -49 10 -54 96 -51 l79 3 -72 38 c-88 45 -103 46 -103
10z"/>
<path d="M785 2747 c-4 -10 -5 -21 -1 -24 10 -10 18 4 13 24 -4 17 -4 17 -12
0z"/>
<path d="M724 2735 c-18 -14 -18 -14 9 -15 17 0 27 5 27 15 0 19 -11 19 -36 0z"/>
<path d="M1640 2744 c0 -5 9 -92 20 -194 11 -102 20 -186 20 -187 0 -2 79 -3
175 -3 l175 0 0 -100 0 -100 -150 0 -149 0 0 -119 c0 -86 3 -119 12 -118 7 0
103 -1 215 -1 l202 -2 0 -95 0 -95 -170 0 c-129 0 -170 -3 -170 -12 0 -14 27
-102 55 -180 l17 -48 69 0 69 0 0 -100 0 -100 -26 0 c-30 0 -28 -12 16 -101
43 -84 38 -82 192 -67 l133 13 3 305 3 305 -32 85 c-18 47 -36 90 -41 96 -8
11 -234 27 -413 28 -96 1 -115 6 -115 33 0 8 9 9 28 4 26 -7 250 2 398 17 l72
7 -28 70 -28 70 74 5 74 5 5 238 c3 130 2 237 0 237 -3 0 -23 -11 -44 -25 -61
-41 -140 -67 -221 -72 -158 -11 -280 36 -379 144 -34 36 -61 62 -61 57z"/>
<path d="M536 2548 c-13 -49 -6 -102 19 -145 l26 -43 64 0 c61 0 65 2 66 23 0
12 3 52 8 89 l7 68 -35 5 c-20 3 -58 10 -84 15 -64 13 -64 13 -71 -12z"/>
<path d="M747 2533 c-3 -5 -8 -45 -11 -90 l-7 -83 24 0 c20 0 37 -17 83 -82
68 -100 63 -93 70 -86 3 3 -6 66 -20 139 -13 74 -27 151 -31 172 -6 37 -6 37
-55 37 -27 0 -51 -3 -53 -7z"/>
<path d="M4144 2498 c3 -24 9 -91 12 -151 7 -105 21 -144 44 -121 9 9 44 172
55 262 l7 52 -62 0 -63 0 7 -42z"/>
<path d="M4280 2511 c0 -16 -9 -82 -20 -147 -11 -64 -19 -119 -17 -121 8 -7
124 76 164 117 49 50 68 97 59 146 l-7 34 -89 0 -90 0 0 -29z"/>
<path d="M545 2315 c3 -38 12 -99 19 -135 l14 -65 1 110 c0 97 -2 113 -20 135
l-21 25 7 -70z"/>
<path d="M4412 2326 c-23 -23 -68 -57 -100 -76 -96 -57 -94 -54 -87 -136 l7
-72 -28 -4 c-28 -3 -30 -7 -50 -98 l-21 -95 28 -35 c38 -48 66 -114 74 -180
l7 -54 31 59 c75 150 153 411 177 595 16 125 17 140 11 139 -3 0 -25 -19 -49
-43z"/>
<path d="M3812 2126 c-20 -19 -34 -37 -31 -41 6 -6 189 41 199 51 11 12 -29
24 -78 24 -46 0 -57 -4 -90 -34z"/>
<path d="M965 2099 c15 -28 100 -152 161 -235 l23 -32 58 18 58 18 3 90 3 91
-43 11 c-24 6 -92 24 -151 40 -59 17 -112 30 -118 30 -5 0 -2 -14 6 -31z"/>
<path d="M3891 2089 c-57 -15 -109 -33 -114 -38 -15 -15 2 -66 32 -95 24 -23
43 -29 106 -37 42 -5 99 -18 126 -28 l48 -19 19 52 c11 28 23 65 26 83 l7 32
-52 3 c-49 3 -52 5 -63 37 -6 19 -15 36 -21 37 -5 1 -57 -11 -114 -27z"/>
<path d="M2831 2038 c-6 -17 -9 -33 -7 -36 3 -2 -2 -11 -10 -19 -8 -8 -11 -19
-8 -25 4 -6 2 -13 -4 -17 -6 -3 -54 -121 -107 -261 l-97 -255 -2 -145 -1 -145
118 -7 c65 -4 164 -15 220 -23 97 -14 102 -14 120 4 31 30 115 175 106 181 -5
3 -63 150 -130 325 -66 176 -125 322 -130 323 -5 2 -9 12 -9 22 0 10 -5 22
-10 25 -6 4 -8 10 -5 15 6 10 -15 70 -25 70 -4 0 -13 -14 -19 -32z"/>
<path d="M3545 2012 c-55 -8 -66 -14 -76 -39 -12 -33 -4 -42 52 -54 24 -5 51
-12 60 -15 15 -4 15 1 3 48 -18 68 -16 64 -39 60z"/>
<path d="M2472 1978 c3 -20 10 -23 60 -26 48 -2 58 0 67 17 14 25 -2 31 -76
31 -51 0 -54 -2 -51 -22z"/>
<path d="M783 1868 c4 -112 17 -179 37 -201 4 -5 32 10 61 32 30 23 57 41 62
41 4 0 7 4 7 9 0 12 -159 241 -167 241 -3 0 -3 -55 0 -122z"/>
<path d="M2090 1981 l-55 -6 55 -7 c30 -4 83 -8 117 -8 51 0 61 3 57 15 -6 16
-62 18 -174 6z"/>
<path d="M3435 1970 c-4 -12 -5 -24 -2 -27 3 -2 8 5 12 17 4 12 5 24 2 27 -3
2 -8 -5 -12 -17z"/>
<path d="M3110 1950 c0 -10 48 -141 54 -147 3 -3 56 139 56 151 0 3 -25 6 -55
6 -30 0 -55 -4 -55 -10z"/>
<path d="M2492 1918 c3 -7 13 -38 23 -68 l18 -55 19 44 c10 24 21 54 24 67 6
23 4 24 -41 24 -34 0 -46 -4 -43 -12z"/>
<path d="M3395 1859 c-19 -57 -12 -80 9 -28 23 57 28 79 17 79 -5 0 -17 -23
-26 -51z"/>
<path d="M3445 1893 c-52 -131 -66 -186 -89 -351 -14 -99 -37 -232 -51 -297
-15 -64 -24 -119 -22 -122 7 -6 140 14 246 37 71 16 90 24 123 57 85 81 247
295 322 425 l27 47 -25 16 c-14 9 -57 21 -97 26 -92 11 -172 48 -230 105 -36
36 -58 48 -105 59 -78 19 -91 18 -99 -2z"/>
<path d="M1213 1841 c-29 -8 -53 -18 -53 -21 0 -3 25 -41 55 -85 l55 -79 0
102 c0 56 -1 101 -2 101 -2 -1 -27 -9 -55 -18z"/>
<path d="M3346 1734 c-55 -138 -126 -328 -123 -330 7 -7 105 210 122 269 16
56 17 101 1 61z"/>
<path d="M896 1691 c-67 -53 -70 -61 -46 -120 32 -82 106 -225 126 -243 23
-21 93 -51 204 -90 89 -30 281 -80 287 -74 2 2 -19 31 -48 65 -49 59 -53 61
-97 61 l-47 1 -151 217 c-83 119 -157 218 -165 220 -8 1 -36 -15 -63 -37z"/>
<path d="M1730 1611 l0 -121 70 0 c39 0 70 1 70 3 0 1 -17 54 -38 117 -38 112
-39 115 -70 118 l-32 3 0 -120z"/>
<path d="M2365 1590 c3 -63 7 -187 10 -275 6 -188 5 -185 107 -185 46 0 70 4
73 13 6 17 23 201 19 206 -2 2 -9 -10 -15 -27 -6 -18 -16 -32 -23 -32 -6 0
-42 82 -80 183 -98 257 -96 256 -91 117z"/>
<path d="M780 1641 c0 -17 5 -31 10 -31 6 0 10 11 10 24 0 14 -4 28 -10 31 -6
4 -10 -7 -10 -24z"/>
<path d="M3970 1598 c-70 -119 -127 -203 -201 -295 -39 -48 -65 -89 -60 -91
23 -8 211 55 211 69 0 5 -4 9 -10 9 -6 0 -10 38 -10 95 l0 94 41 11 c68 18 96
60 90 130 -5 57 -17 52 -61 -22z"/>
<path d="M3253 1403 c-39 -76 -93 -176 -121 -223 -27 -47 -49 -85 -49 -86 9
-6 140 16 151 25 24 20 113 421 94 421 -3 0 -37 -62 -75 -137z"/>
<path d="M1437 1291 l-38 -6 62 -60 c34 -33 60 -53 57 -45 -3 8 -11 39 -18 68
-8 28 -16 51 -19 51 -3 -1 -23 -5 -44 -8z"/>
<path d="M3995 1284 c-16 -8 -40 -25 -53 -37 -32 -30 -127 -182 -103 -165 31
22 112 100 159 152 57 66 56 81 -3 50z"/>
<path d="M1087 1203 c90 -106 348 -303 396 -303 11 0 39 21 63 46 39 40 44 50
39 76 -10 43 -73 104 -120 116 -131 34 -280 75 -348 96 l-77 25 47 -56z"/>
<path d="M3790 1206 c-106 -30 -194 -83 -293 -176 l-67 -62 27 -33 c16 -19 35
-44 44 -56 21 -30 48 -22 134 43 70 53 180 180 223 257 l23 41 -23 -1 c-13 0
-43 -6 -68 -13z"/>
<path d="M1110 1130 c0 -20 207 -216 282 -268 42 -28 79 -52 82 -52 3 0 6 11
6 25 0 20 -17 36 -91 86 -50 33 -134 97 -185 140 -52 43 -94 74 -94 69z"/>
<path d="M3415 1114 c-134 -24 -172 -39 -162 -67 3 -10 116 -57 138 -57 14 0
179 134 179 146 0 5 15 7 -155 -22z"/>
<path d="M1589 1082 c26 -38 59 -62 83 -62 9 0 54 12 100 27 l83 27 -75 12
c-41 7 -106 16 -144 20 l-69 7 22 -31z"/>
<path d="M2290 1103 c-150 -14 -165 -16 -135 -24 17 -3 67 -7 113 -8 73 -1 83
1 80 16 -3 19 -10 21 -58 16z"/>
<path d="M2390 1090 c0 -18 7 -20 80 -20 73 0 80 2 80 20 0 18 -7 20 -80 20
-73 0 -80 -2 -80 -20z"/>
<path d="M2588 1104 c-5 -4 -8 -13 -8 -21 0 -10 25 -13 113 -12 151 2 199 13
97 22 -41 4 -102 10 -135 13 -33 3 -63 2 -67 -2z"/>
<path d="M1824 1040 c-94 -25 -124 -37 -124 -49 0 -24 221 -176 355 -243 135
-68 335 -139 335 -119 0 4 -25 31 -56 61 -80 79 -154 173 -214 270 -29 47 -58
88 -64 92 -21 14 -161 7 -232 -12z"/>
<path d="M2775 1048 c-104 -5 -193 -12 -197 -16 -3 -4 -11 -54 -17 -112 -6
-58 -19 -149 -28 -203 -8 -54 -13 -100 -11 -103 6 -5 86 40 158 89 62 43 201
178 269 262 77 94 78 95 44 93 -15 0 -113 -5 -218 -10z"/>
<path d="M3039 1033 c-14 -16 -50 -59 -81 -98 -67 -84 -181 -195 -261 -255
-32 -23 -56 -45 -53 -47 8 -8 141 29 266 75 106 39 133 53 176 94 52 49 103
142 107 195 2 24 -3 28 -58 45 -75 22 -67 23 -96 -9z"/>
<path d="M2110 1032 c0 -32 188 -279 248 -326 l25 -20 -7 140 c-4 76 -10 156
-13 177 l-6 37 -123 0 c-68 0 -124 -4 -124 -8z"/>
<path d="M2390 988 c0 -76 19 -277 31 -320 7 -28 16 -39 35 -44 14 -4 29 -3
33 2 10 11 51 298 51 357 0 53 -7 57 -91 57 l-59 0 0 -52z"/>
<path d="M3200 925 c-22 -49 -38 -90 -36 -92 6 -7 189 112 194 125 4 12 -39
34 -91 47 -26 7 -29 3 -67 -80z"/>
<path d="M1640 972 c0 -18 119 -189 149 -215 60 -50 129 -74 338 -116 152 -31
159 -26 38 27 -138 60 -276 141 -404 237 -93 70 -121 86 -121 67z"/>
<path d="M1557 929 c-58 -48 -51 -59 69 -118 58 -29 107 -51 109 -49 6 6 -118
191 -130 195 -6 2 -27 -11 -48 -28z"/>
<path d="M3335 904 c-28 -19 -80 -53 -116 -74 -58 -35 -187 -156 -176 -166 13
-14 347 109 415 152 39 25 20 85 -35 113 -31 16 -32 15 -88 -25z"/>
<path d="M1530 810 c45 -63 188 -139 290 -154 l45 -7 -25 21 c-19 16 -257 140
-324 169 -5 2 1 -11 14 -29z"/>
<path d="M3378 745 c-3 -3 -68 -28 -144 -56 -125 -45 -132 -61 -9 -22 53 17
165 70 165 78 0 7 -5 6 -12 0z"/>
<path d="M2895 669 c-71 -26 -134 -50 -140 -53 -17 -8 127 5 169 16 34 8 136
89 111 87 -5 -1 -68 -23 -140 -50z"/>
<path d="M1890 665 c0 -17 90 -47 153 -51 l72 -4 -90 25 c-128 34 -135 36
-135 30z"/>
<path d="M2495 540 c-11 -18 3 -26 41 -22 35 4 36 6 19 18 -22 16 -51 18 -60
4z"/>
</g>
</svg>
